<svg xmlns="http://www.w3.org/2000/svg" viewBox="0 0 512 512" role="img" aria-label="S brand icon concept 9">
  <circle cx="256" cy="256" r="236" fill="#075BD8"/>
  <path d="M92 210 C122 110 231 55 338 86 C388 101 424 130 448 171
           C382 143 306 143 245 171 C196 194 174 226 193 250
           C211 273 258 271 306 283 C367 298 398 337 380 386
           C356 450 270 477 188 445 C131 423 98 382 80 329
           C139 371 216 381 278 356 C320 340 340 313 324 291
           C309 270 262 270 213 258 C148 242 111 207 92 210 Z"
        fill="#FFFFFF"/>
  <path d="M92 210 C122 110 231 55 338 86 C388 101 424 130 448 171
           C382 143 306 143 245 171 C196 194 174 226 193 250
           C211 273 258 271 306 283 C367 298 398 337 380 386
           C356 450 270 477 188 445 C131 423 98 382 80 329
           C139 371 216 381 278 356 C320 340 340 313 324 291
           C309 270 262 270 213 258 C148 242 111 207 92 210 Z"
        fill="none" stroke="#003B94" stroke-width="10" stroke-linejoin="round"/>
</svg>