<svg xmlns="http://www.w3.org/2000/svg" viewBox="0 0 1024 1024">
  <defs>
    <linearGradient id="bg" x1="0" y1="0" x2="1" y2="1">
      <stop offset="0" stop-color="#fffaf2"/>
      <stop offset="0.52" stop-color="#d9eef2"/>
      <stop offset="1" stop-color="#0f6c81"/>
    </linearGradient>
    <linearGradient id="sun" x1="0" y1="0" x2="1" y2="1">
      <stop offset="0" stop-color="#ffd98a"/>
      <stop offset="1" stop-color="#d46b38"/>
    </linearGradient>
    <filter id="shadow" x="-20%" y="-20%" width="140%" height="140%">
      <feDropShadow dx="0" dy="24" stdDeviation="28" flood-color="#102024" flood-opacity="0.24"/>
    </filter>
  </defs>
  <rect width="1024" height="1024" rx="224" fill="url(#bg)"/>
  <circle cx="746" cy="218" r="112" fill="url(#sun)"/>
  <path d="M120 704c104-132 223-194 357-184 98 8 172 52 251 49 66-2 125-39 176-91v242c-105 83-209 116-312 97-97-18-170-78-265-70-73 6-140 47-207 113V704z" fill="#7ea17b" opacity="0.96"/>
  <path d="M86 800c121-112 230-154 327-126 103 31 181 124 296 120 74-2 148-44 229-125v206c-75 61-157 93-247 96H86V800z" fill="#0f6c81" opacity="0.96"/>
  <path d="M412 894c-14-149 7-284 62-405 49-108 125-204 226-289" fill="none" stroke="#fffaf2" stroke-width="88" stroke-linecap="round" filter="url(#shadow)"/>
  <path d="M412 894c-14-149 7-284 62-405 49-108 125-204 226-289" fill="none" stroke="#d46b38" stroke-width="18" stroke-linecap="round" stroke-dasharray="46 42"/>
  <text x="150" y="234" font-family="-apple-system,BlinkMacSystemFont,Segoe UI,Arial,sans-serif" font-size="126" font-weight="900" fill="#102024" letter-spacing="-8">CA</text>
  <text x="154" y="318" font-family="-apple-system,BlinkMacSystemFont,Segoe UI,Arial,sans-serif" font-size="54" font-weight="800" fill="#0f6c81">TRIP</text>
</svg>
